<?xml version="1.0" encoding="UTF-8"?>
<svg id="_레이어_1" data-name="레이어 1" xmlns="http://www.w3.org/2000/svg" xmlns:xlink="http://www.w3.org/1999/xlink" viewBox="0 0 58.57 16.95">
  <defs>
    <style>
      .cls-1 {
        fill: #141414;
      }

      .cls-2 {
        fill: url(#linear-gradient);
        fill-rule: evenodd;
      }
    </style>
    <linearGradient id="linear-gradient" x1="50.95" y1="12.71" x2="54.55" y2="12.71" gradientUnits="userSpaceOnUse">
      <stop offset="0" stop-color="#d9eef1"/>
      <stop offset=".32" stop-color="#63c3d4"/>
      <stop offset=".67" stop-color="#158ecf"/>
      <stop offset="1" stop-color="#00378c"/>
    </linearGradient>
  </defs>
  <path class="cls-1" d="M9.52,10.44h-1.87l-.79,3.45h-2.83L6.61,2.55h4.8c1.19,0,2.02.27,2.49.82.35.42.5.95.47,1.6-.01.22-.04.45-.1.69l-.41,1.78c-.2.87-.7,1.59-1.5,2.15-.8.56-1.74.84-2.84.84ZM10.29,5.01h-1.42l-.67,2.97h1.4c.86,0,1.38-.38,1.55-1.15l.14-.65c.03-.09.04-.22.05-.38,0-.16-.06-.33-.21-.52-.15-.19-.43-.28-.85-.28Z"/>
  <path class="cls-1" d="M21.44,13.06c-.87.7-2.07,1.05-3.59,1.05s-2.56-.35-3.11-1.05c-.39-.48-.57-1.15-.52-2,.02-.38.08-.79.19-1.24l1.65-7.25h2.83l-1.65,7.19c-.06.26-.09.54-.11.82-.04.73.38,1.1,1.26,1.1.52,0,.95-.14,1.28-.41s.58-.78.74-1.51l1.65-7.19h2.83l-1.65,7.25c-.34,1.47-.94,2.55-1.81,3.25Z"/>
  <path class="cls-1" d="M31.16,13.88h-7.17l2.59-11.33h2.83l-2.02,8.87h4.34l-.57,2.45Z"/>
  <path class="cls-1" d="M35.12,10.66c-.04.72.46,1.09,1.51,1.09s1.58-.33,1.62-.98c.02-.35-.15-.63-.49-.85-.35-.22-.77-.4-1.27-.55-.5-.15-1-.32-1.5-.51-.5-.19-.92-.5-1.25-.91-.33-.41-.49-.93-.45-1.55.14-2.63,1.9-3.95,5.29-3.95,1.24,0,2.16.23,2.77.7.61.47.89,1.11.85,1.94-.02.3-.07.6-.16.87-.09.28-.18.47-.27.59l-.14.19h-2.78c.24-.24.37-.55.39-.91.04-.68-.39-1.02-1.28-1.02-1.12,0-1.7.36-1.74,1.07-.02.36.14.64.49.85.35.21.77.38,1.27.5.5.12,1.01.27,1.51.45.5.18.92.47,1.26.89.33.41.49.95.45,1.61-.07,1.33-.52,2.32-1.35,2.97-.83.65-2.08.97-3.73.97s-2.77-.29-3.35-.88c-.43-.44-.62-1.05-.58-1.82.02-.29.06-.61.14-.96l.06-.25h2.83l-.04.19c-.03.11-.04.2-.05.28Z"/>
  <path class="cls-1" d="M49.57,13.88h-7.9l2.59-11.33h7.9l-.57,2.45h-5.07l-.47,2.12h4.19l-.57,2.45h-4.19l-.41,1.84h5.07l-.57,2.45Z"/>
  <path class="cls-2" d="M54.55,12.71c0,.99-.81,1.8-1.8,1.8s-1.8-.81-1.8-1.8.81-1.8,1.8-1.8,1.8.81,1.8,1.8Z"/>
</svg>